<svg width="215" height="144" viewBox="0 0 215 144" fill="none" xmlns="http://www.w3.org/2000/svg">
<path fill-rule="evenodd" clip-rule="evenodd" d="M127.067 32.5199C126.834 33.5398 126.984 34.7029 127.124 35.7884L127.126 35.8089C127.159 36.0607 127.19 36.3085 127.217 36.5492C127.409 38.7087 127.672 40.8678 128.068 43.006C128.161 43.4836 128.257 43.9614 128.353 44.4397L128.497 45.1659L128.584 45.6049C128.776 46.5803 128.959 47.5573 129.115 48.5358C127.568 46.7677 126.078 44.9443 124.588 43.1209C123.951 42.342 123.315 41.5633 122.674 40.7889C122.081 40.0605 121.494 39.335 120.909 38.6092C120.216 37.7493 119.527 36.8888 118.836 36.0222C118.726 35.885 118.618 35.7441 118.509 35.601C118.416 35.4776 118.322 35.3528 118.228 35.2272L118.222 35.2191C117.156 33.7921 116.025 32.279 114.087 32.1269C109.227 31.7532 108.985 38.1326 108.852 41.664L108.851 41.6856L108.85 41.7131L108.841 41.9306C108.837 42.0443 108.833 42.1546 108.828 42.261C108.756 44.2122 108.79 46.1633 108.824 48.1189L108.824 48.1263L108.84 49.0162C108.792 50.0859 108.716 51.1419 108.619 52.2047C108.532 52.6785 108.442 53.1493 108.349 53.6186C108.282 53.9584 108.215 54.2973 108.147 54.6359L108.13 54.7225L108.128 54.7288L108.008 55.3318L107.937 55.6898C107.841 56.1768 107.746 56.6641 107.656 57.1533C107.609 57.4107 107.563 57.6686 107.518 57.9273C107.199 59.9566 106.922 61.9722 106.645 63.9877C106.597 64.2393 106.548 64.4915 106.498 64.7436C106.449 64.9878 106.398 65.232 106.346 65.4759C106.301 65.6867 106.255 65.8974 106.207 66.1076C106.152 66.3543 106.094 66.6004 106.035 66.8456C105.997 66.9886 105.957 67.1302 105.915 67.2711C105.818 67.5997 105.711 67.9236 105.603 68.2474C105.483 68.3098 105.363 68.372 105.215 68.4207L104.728 68.5805C104.488 68.6362 104.269 68.685 104.023 68.72C103.271 68.7978 102.538 68.8113 101.79 68.8251L101.596 68.8288C100.76 68.7823 99.9239 68.7358 99.0955 68.641C97.8044 68.4229 96.5778 68.115 95.3163 67.7727C94.4199 67.471 93.5023 67.1763 92.6137 66.8263C91.9003 66.5105 91.2014 66.167 90.5168 65.7958C90.0142 65.4795 89.533 65.1561 89.045 64.8122C88.4806 64.3787 87.9518 63.9107 87.4163 63.4219C87.0438 63.0366 86.6834 62.6395 86.3281 62.2374C86.0738 61.9498 85.8221 61.6597 85.5704 61.3696C83.8404 59.0272 82.273 56.6087 80.7913 54.0933C80.8243 54.1451 80.8572 54.1968 80.8892 54.2481C79.5731 51.952 78.2577 49.6559 76.962 47.3531L76.6655 46.8219C75.2836 44.3483 73.9087 41.887 72.8111 39.2749C72.4905 38.4406 72.219 37.6133 71.9832 36.7513C71.5222 34.7029 71.1875 32.6819 70.9164 30.64C70.6848 28.2185 70.4534 25.797 70.2499 23.3892C70.0726 21.1332 70.057 18.8699 70.1119 16.6065C70.1588 15.6059 70.2618 14.6326 70.3859 13.6526C70.6691 12.2996 71.0012 10.9534 71.3827 9.6138C71.6528 8.84457 71.9755 8.0894 72.2954 7.34048L72.4224 7.04304L72.4979 6.86515C73.2416 5.2006 73.1331 3.08246 71.5722 1.899C71.0358 1.47926 70.4843 1.15615 69.7829 1.01957C69.1798 0.896625 68.5884 0.95316 67.9829 1.03727C67.7615 1.0636 67.5363 1.11412 67.3101 1.17854C66.9807 1.27219 66.6492 1.39535 66.3245 1.51599L66.321 1.51714L66.3099 1.52121L66.2976 1.52565C66.1982 1.56259 66.0997 1.59923 66.002 1.63466C65.8871 1.67626 65.7734 1.71622 65.6613 1.75297C65.0128 1.96571 64.3714 2.1819 63.7326 2.39718C63.0992 2.61068 62.4683 2.82337 61.8357 3.03089C61.2754 3.21471 60.7152 3.39906 60.155 3.58339L60.1484 3.58555C55.673 5.05817 51.1978 6.53077 46.6366 7.74204C44.7639 8.20969 42.9086 8.73036 41.0532 9.25105C40.5892 9.38131 40.1253 9.51155 39.661 9.64093C38.5752 9.90552 37.5105 10.1631 36.418 10.4069C36.2817 10.4364 36.1454 10.4653 36.0089 10.4939C35.8384 10.5296 35.6678 10.5649 35.4971 10.6002L35.4923 10.6014C34.5714 10.792 33.6504 10.9827 32.7523 11.2429C32.195 11.4028 31.6234 11.5903 31.0728 11.7709C29.3782 12.3957 27.5987 13.0481 25.7846 13.6662C24.1113 14.2315 22.4552 14.8495 20.7991 15.4676C20.1359 15.7151 19.4727 15.9626 18.8085 16.2067C18.6674 16.2588 18.5262 16.3106 18.385 16.3624L18.1421 16.451C17.2544 16.7752 16.3667 17.0995 15.4963 17.4766C15.2612 17.5745 15.0282 17.6791 14.7962 17.7873C14.6841 17.8396 14.5722 17.893 14.4605 17.9468C14.2642 18.0414 14.0683 18.1377 13.8721 18.2342L13.8552 18.2427L13.8503 18.2448C13.3816 18.4755 12.9106 18.7071 12.428 18.9183C9.71589 19.9729 6.93721 20.8825 4.17236 21.7876L3.24392 22.0916C1.21802 22.7791 0.0390652 24.9759 0.697337 26.9825C0.805898 27.3134 0.94996 27.6099 1.12975 27.8717C1.12568 29.7094 2.13223 31.439 3.06559 33.0428C3.25031 33.3602 3.43212 33.6727 3.60266 33.98C4.66135 35.8725 5.65189 37.7942 6.6421 39.7153C7.4549 41.2923 8.26758 42.8691 9.11766 44.4289C11.1616 48.1575 13.2826 51.9067 15.9499 55.2476C17.8576 57.6019 19.8473 59.8697 21.8434 62.1448L21.8455 62.147C22.305 62.6708 22.7648 63.195 23.2241 63.7207C23.5299 64.0706 23.8354 64.4212 24.1404 64.7728C26.8176 67.8584 29.7016 70.7158 32.7912 73.414C35.9994 76.1879 39.2433 78.9273 42.7157 81.3624C45.235 83.1152 47.9066 84.7119 50.5618 86.2988L50.5746 86.3063C51.4061 86.8033 52.2359 87.2992 53.0588 87.7987C56.5979 89.9371 60.1946 91.9649 63.9421 93.7371C67.7801 95.5711 71.7993 96.9563 75.8692 98.2103C79.8619 99.4437 83.9341 100.491 88.015 101.42C91.8779 102.33 95.801 102.922 99.7849 103.127C101.837 103.233 103.899 103.015 105.941 102.734L106.129 102.708C106.256 102.69 106.382 102.671 106.509 102.652C106.582 102.641 106.656 102.629 106.73 102.618C106.798 102.607 106.866 102.596 106.934 102.585C107.317 102.522 107.697 102.453 108.076 102.378C108.213 104.441 108.244 106.538 108.22 108.608L108.18 111.25L108.18 111.309C108.168 112.083 108.156 112.856 108.145 113.629C108.134 114.393 108.124 115.157 108.115 115.922C108.108 116.551 108.102 117.182 108.097 117.813C108.088 119.203 108.11 120.594 108.131 121.987L108.132 122.019L108.132 122.035L108.132 122.038C108.143 122.693 108.153 123.349 108.16 124.005C108.168 124.682 108.172 125.36 108.169 126.038C108.097 127.322 107.998 128.592 107.828 129.862C107.579 131.318 107.302 132.761 106.933 134.211C106.674 135.281 106.296 136.344 106.108 137.414C105.928 138.367 105.945 139.278 106.117 140.23C106.492 142.375 108.688 143.992 110.922 143.511C111.951 143.288 112.801 142.734 113.666 142.152C114.344 141.711 115.026 141.283 115.698 140.86L115.705 140.856L116.209 140.539C117.682 139.597 119.204 138.732 120.726 137.866C123.147 136.453 125.513 134.944 127.644 133.145C129.057 131.948 130.504 130.786 131.959 129.644C132.553 129.227 133.149 128.812 133.747 128.402L133.835 129.143C133.885 129.559 133.934 129.974 133.983 130.39C134.044 130.901 134.103 131.412 134.161 131.923C134.342 133.834 134.496 135.732 134.494 137.657C134.047 138.582 134.006 139.673 134.283 140.659C134.741 142.341 136.563 143.462 138.286 143.355C139.328 143.311 140.197 142.889 140.873 142.232C141.262 142.058 141.65 141.885 142.026 141.67L142.038 141.663C142.39 141.462 142.743 141.261 143.093 141.059C143.583 140.776 144.069 140.491 144.546 140.202C145.87 139.378 147.139 138.527 148.421 137.647C149.494 136.898 150.542 136.121 151.589 135.345C153.074 134.243 154.558 133.144 156.108 132.124L156.522 131.857C157.684 131.107 158.858 130.349 160.005 129.563C161.394 128.58 162.77 127.556 164.125 126.539C164.826 126.015 165.551 125.509 166.276 125.003L166.303 124.985C166.53 124.826 166.758 124.667 166.985 124.507L167.23 124.335C167.374 124.232 167.519 124.13 167.663 124.026C169.18 122.933 170.656 121.784 172.139 120.656C172.072 120.714 172.003 120.767 171.931 120.82L171.844 120.885L171.776 120.936L171.728 120.974C172.006 120.779 172.286 120.588 172.567 120.399C172.933 120.153 173.3 119.912 173.668 119.674C174.203 119.327 174.74 118.987 175.276 118.646C176.036 118.164 176.794 117.683 177.544 117.187C178.313 116.704 179.043 116.152 179.771 115.601L179.804 115.576L180.182 115.291C180.962 114.737 181.783 114.239 182.605 113.74C184.09 112.978 185.576 112.216 186.992 111.316C188.331 110.464 189.67 109.613 191.05 108.816C191.503 108.566 191.957 108.318 192.412 108.072C192.722 107.904 193.032 107.737 193.343 107.569L193.349 107.566C195.356 106.483 197.362 105.401 199.288 104.189C200.825 103.226 202.321 102.209 203.74 101.102C204.514 100.51 205.242 99.8535 205.97 99.1973C206.477 98.7409 206.983 98.2846 207.504 97.8504C208.398 97.2135 209.333 96.6319 210.296 96.064C210.377 96.0158 210.46 95.9678 210.542 95.92L210.729 95.8125L210.892 95.7192L210.901 95.7141C211.676 95.2711 212.458 94.8242 213.122 94.2433C214.046 93.4133 214.722 92.1146 214.638 90.8589L214.633 90.7846C214.588 90.0946 214.545 89.442 214.22 88.7965C213.849 88.0245 213.31 87.3081 212.655 86.7437C211.186 85.4696 209.45 84.5265 207.724 83.5883C207.333 83.3759 206.942 83.1637 206.556 82.9479C204.734 81.8271 202.976 80.6854 201.247 79.4195L200.635 78.9403L200.633 78.9383C198.63 77.3689 196.625 75.7972 194.472 74.4246C192.243 73.0027 189.904 71.7635 187.564 70.5236L186.741 70.0872C185.652 69.4133 184.606 68.7257 183.553 68.0172C183.352 67.8627 183.153 67.7075 182.955 67.5518C182.541 67.2273 182.131 66.9007 181.721 66.5746L181.719 66.5724L181.714 66.5689C180.377 65.5049 179.044 64.4445 177.63 63.4757C176.986 63.0288 176.336 62.5879 175.686 62.1468L175.665 62.1325C174.241 61.1663 172.814 60.1984 171.431 59.1626C168.505 56.8919 165.565 54.6488 162.603 52.4126C162.622 52.4294 162.642 52.4457 162.661 52.4616C162.722 52.5112 162.784 52.5564 162.843 52.601C162.895 52.6409 162.944 52.6804 162.986 52.7222C160.688 50.9332 158.403 49.1164 156.004 47.4516C155.103 46.8254 154.186 46.2231 153.27 45.6212L153.268 45.6194C151.931 44.7411 150.594 43.8626 149.309 42.9119C148.967 42.6574 148.64 42.3751 148.313 42.0929C147.299 41.0049 146.285 39.9859 145.072 39.0777L142.396 37.1376C142.121 36.9389 141.851 36.737 141.58 36.5354C140.971 36.0808 140.364 35.6279 139.726 35.2181C138.644 34.496 137.52 33.8567 136.396 33.2174L136.402 33.238C135.997 33.0043 135.614 32.7635 135.223 32.5022C135.099 32.2679 134.969 32.0128 134.838 31.7578C134.205 30.6138 133.252 29.7119 131.899 29.4457C131.197 29.3092 130.508 29.3521 129.872 29.5605C128.469 29.9293 127.394 31.0839 127.067 32.5199ZM137.227 51.503C137.224 51.4492 137.221 51.3954 137.219 51.3416C137.133 49.6043 137.048 47.8679 136.721 46.1478L135.947 42.0714C137.236 42.9565 138.474 43.8916 139.726 44.813C139.944 44.9729 140.161 45.1323 140.38 45.2911C140.498 45.3898 140.616 45.4863 140.734 45.5828L140.845 45.6735L140.979 45.7841L141.107 45.8904C141.219 45.9838 141.331 46.0793 141.445 46.179C142.348 47.143 143.243 48.0864 144.309 48.9053C145.341 49.6896 146.408 50.4395 147.517 51.1754C147.727 51.3175 147.937 51.459 148.148 51.6001C148.513 51.8441 148.877 52.0874 149.242 52.3304C149.631 52.5895 150.019 52.8484 150.407 53.1085C148.515 52.8162 146.618 52.4639 144.713 52.2096C143.031 51.977 141.351 51.8431 139.673 51.7093C138.857 51.6443 138.041 51.5793 137.227 51.503ZM157.728 58.4843C156.979 59.755 155.525 60.5774 153.966 60.47C153.938 60.4562 153.917 60.4631 153.868 60.4563C153.852 60.4616 153.832 60.455 153.805 60.4575C153.796 60.4583 153.787 60.4601 153.777 60.4635C153.645 60.5067 153.525 60.5279 153.391 60.5516L153.339 60.561L153.466 60.5193C152.712 60.7211 151.986 60.8676 151.191 60.9451C150.415 61.0234 149.56 60.8603 148.767 60.709C148.632 60.6832 148.499 60.6577 148.368 60.6339C147.663 60.5215 146.956 60.404 146.249 60.2865C145.542 60.1689 144.835 60.0515 144.13 59.9391C142.633 59.7403 141.137 59.5871 139.624 59.4722C141.134 60.919 142.668 62.3483 144.215 63.7658C144.284 63.7397 144.353 63.7151 144.423 63.6922C145.63 63.2963 147.007 63.3486 148.285 63.5252C149.66 63.7155 151.029 63.885 152.405 64.0752C154.314 64.3195 156.253 64.5086 158.184 64.6769C161.075 64.9155 163.951 65.182 166.822 65.4811C165.646 64.6128 164.492 63.7076 163.34 62.8033L163.3 62.7719L163.262 62.742L163.225 62.7133L162.8 62.3798L162.466 62.1184C162.151 61.8725 161.836 61.6273 161.521 61.3837C161.443 61.3291 161.365 61.2721 161.29 61.2063L161.521 61.3837C161.559 61.4106 161.596 61.4368 161.633 61.4632C161.654 61.4784 161.674 61.4936 161.694 61.509C160.365 60.5081 159.046 59.498 157.728 58.4843ZM158.851 72.5004C156.962 72.3369 155.085 72.1511 153.205 71.948L155.566 74.1315C156.676 75.1573 157.788 76.1818 158.905 77.2007C159.037 77.1 159.174 77.0067 159.315 76.9208C159.553 76.7756 159.804 76.6517 160.062 76.5482C160.251 76.486 160.444 76.4353 160.638 76.3972C160.813 76.3627 160.988 76.3385 161.161 76.325C161.344 76.3108 161.506 76.3037 161.674 76.317C162.731 76.3594 163.796 76.5643 164.851 76.7675C164.998 76.7957 165.144 76.824 165.291 76.8516C165.393 76.8709 165.495 76.8901 165.597 76.9089L165.607 76.9106C166.277 77.0328 166.947 77.155 167.596 77.284L172.583 78.3291L174.035 78.6572C177.02 79.331 180 80.0036 182.973 80.7631C185.367 81.3706 187.781 81.8545 190.194 82.3382L190.983 82.4964C191.324 82.5651 191.665 82.6339 192.005 82.7033C192.315 82.7649 192.624 82.8271 192.934 82.89L192.715 82.7225C191.37 81.7663 190.01 80.8377 188.593 79.9506C188.203 79.7315 187.811 79.5153 187.417 79.3006C187.174 79.1676 186.93 79.0354 186.686 78.9035C186.422 78.7609 186.157 78.6187 185.893 78.4763C184.293 77.6153 182.69 76.7522 181.134 75.7989C179.246 74.6429 177.506 73.2516 175.782 71.8737L175.779 71.8713L175.77 71.8645L175.768 71.863L175.761 71.8567C175.4 71.5686 175.04 71.281 174.68 70.9964C174.407 70.7939 174.132 70.5938 173.856 70.3958C173.483 72.2573 171.642 73.7892 169.637 73.5673C166.056 73.161 162.461 72.7824 158.851 72.5004ZM204.235 90.5804L204.313 90.6258L204.109 90.7532C204.152 90.697 204.195 90.6393 204.235 90.5804ZM202.176 92.1111C201.511 92.6468 200.874 93.2208 200.239 93.7935C199.529 94.4324 198.822 95.0693 198.081 95.6488C197.293 96.2101 196.5 96.7421 195.696 97.2565C195.253 96.9186 194.731 96.671 194.155 96.5474C193.096 96.322 192.073 96.062 191.015 95.7676C185.914 94.302 180.841 92.8501 175.71 91.5087C175.658 91.4949 175.606 91.4808 175.555 91.4664L175.439 91.4341C175.295 91.2843 175.15 91.1416 175.006 91.0065C174.282 90.3107 173.518 89.6699 172.752 89.028L172.494 88.8108C172.368 88.7056 172.243 88.6001 172.118 88.4941C171.072 87.6045 170.007 86.7385 168.943 85.8736L168.298 85.3494C169.274 85.5528 170.248 85.7612 171.22 85.9705C174.684 86.7359 178.127 87.5082 181.561 88.3978C183.849 88.9873 186.152 89.4432 188.468 89.9017C189.082 90.0232 189.697 90.1451 190.313 90.2697C191.266 90.4649 192.219 90.664 193.171 90.8632L193.203 90.8699L193.215 90.8726C195.513 91.3534 197.81 91.834 200.111 92.2564C200.817 92.3872 201.527 92.3275 202.176 92.1111ZM175.714 99.5268L174.858 99.2989C174.786 99.3399 174.713 99.3803 174.64 99.4199C174.58 99.4531 174.519 99.4859 174.458 99.5183L174.4 99.5492L174.289 99.6071C174.206 99.6504 174.122 99.693 174.038 99.7351C173.947 99.7804 173.855 99.825 173.763 99.8691C173.625 99.9343 173.488 100.001 173.351 100.068C173.215 100.134 173.08 100.202 172.945 100.27C172.596 100.448 172.252 100.631 171.916 100.818C171.799 100.884 171.683 100.957 171.564 101.035C171.483 101.088 171.4 101.143 171.314 101.199C171.286 101.22 171.263 101.239 171.239 101.258L171.22 101.274L171.195 101.295L171.165 101.317C171.018 101.44 170.872 101.564 170.726 101.689C171.011 101.81 171.297 101.93 171.583 102.05C171.859 102.165 172.135 102.281 172.411 102.397C174.889 103.303 177.388 104.201 179.924 104.997C180.417 105.151 180.851 105.403 181.217 105.724C181.304 105.679 181.391 105.633 181.478 105.587C182.344 105.081 183.195 104.544 184.047 104.007L184.053 104.003L184.537 103.699C184.728 103.578 184.92 103.458 185.113 103.339L185.375 103.176C185.715 102.966 186.057 102.758 186.401 102.554C185.312 102.241 184.226 101.917 183.142 101.593C182.043 101.265 180.946 100.937 179.849 100.622L179.288 100.473L177.794 100.078C177.103 99.8952 176.412 99.7128 175.714 99.5268ZM173.037 110.875L173.035 110.877C172.449 111.256 171.852 111.624 171.254 111.993L171.087 112.096C170.867 112.232 170.648 112.367 170.429 112.503C169.681 112.292 168.934 112.076 168.186 111.86L168.174 111.857C166.045 111.242 163.912 110.627 161.76 110.107C161.668 110.085 161.575 110.061 161.481 110.037C162.003 109.587 162.517 109.129 163.022 108.663C163.355 108.354 163.688 108.044 164.021 107.735L164.024 107.732L164.393 107.389C164.946 107.674 165.522 107.917 166.065 108.145C166.267 108.23 166.47 108.316 166.672 108.403C166.872 108.489 167.073 108.576 167.274 108.663L167.722 108.858L168.039 108.994C168.581 109.225 169.127 109.452 169.682 109.663C170.796 110.071 171.915 110.479 173.037 110.875ZM155.475 116.614C154.576 116.951 153.591 116.97 152.658 116.59C152.295 116.827 151.93 117.061 151.564 117.294L151.248 117.494L151.035 117.628L150.785 117.784L151.095 117.917C151.358 118.029 151.621 118.14 151.885 118.25C152.44 118.474 152.993 118.687 153.547 118.898C153.921 119.04 154.295 119.18 154.672 119.321L155.37 119.581C156.423 119.961 157.23 120.747 157.648 121.7C157.917 121.506 158.186 121.311 158.452 121.113C159.658 120.215 160.887 119.335 162.117 118.454L162.353 118.286L160.061 117.653C158.554 117.277 157.047 116.9 155.524 116.621C155.524 116.621 155.521 116.619 155.516 116.617C155.512 116.616 155.507 116.614 155.501 116.613C155.496 116.612 155.491 116.612 155.485 116.612C155.482 116.612 155.479 116.613 155.475 116.614ZM150.968 126.228C149.737 127.072 148.537 127.964 147.34 128.852L147.336 128.854C146.734 129.302 146.132 129.748 145.529 130.188C144.415 131.011 143.267 131.8 142.105 132.548C141.922 130.696 141.7 128.858 141.476 127.008C141.416 126.508 141.355 126.007 141.295 125.505C141.29 125.465 141.284 125.426 141.28 125.388C141.276 125.361 141.273 125.334 141.27 125.308C141.264 125.251 141.258 125.194 141.253 125.138C141.241 125.007 141.23 124.879 141.213 124.753C141.193 124.691 141.2 124.642 141.201 124.573C141.215 124.615 141.214 124.684 141.234 124.746C141.289 124.352 141.283 123.955 141.209 123.557C141.428 123.422 141.648 123.288 141.869 123.155C141.997 123.077 142.125 122.999 142.254 122.922L142.512 122.765L142.806 122.586C143.216 122.829 143.639 123.047 144.05 123.249C144.337 123.384 144.623 123.525 144.91 123.666C145.483 123.948 146.061 124.232 146.658 124.479C147.475 124.831 148.293 125.171 149.115 125.502C149.44 125.633 149.765 125.762 150.092 125.89C150.383 126.004 150.675 126.117 150.968 126.228ZM70.2874 88.0583C66.7764 86.5064 63.3941 84.7749 60.0558 82.8914C55.2872 80.0796 50.5187 77.2676 45.9931 74.1239C41.68 70.8418 37.5666 67.3109 33.6456 63.5794C31.841 61.6764 30.1373 59.7214 28.4204 57.7512L28.4168 57.7469L27.9419 57.2021C27.601 56.8117 27.2597 56.4221 26.9185 56.0328L26.9129 56.0262C25.2639 54.1442 23.6202 52.2682 22.0542 50.3352C20.4701 48.1512 19.006 45.9049 17.6133 43.5894C16.1263 40.9153 14.7307 38.2341 13.3285 35.5322C12.6136 34.1399 11.85 32.7409 11.0929 31.3625C11.0018 31.1974 10.9093 31.0321 10.8163 30.8666L10.5847 30.456L10.5448 30.3855C10.1338 29.6584 9.7191 28.9249 9.34477 28.1783C10.0011 27.963 10.6575 27.7476 11.3071 27.5116C12.613 27.0603 13.8978 26.6159 15.1978 26.0749C15.9309 25.7728 16.6442 25.4309 17.358 25.0886C17.9716 24.7945 18.5857 24.5 19.2129 24.2307C19.4226 24.1525 19.6323 24.0736 19.8421 23.9943L20.2345 23.8458C20.6387 23.6924 21.043 23.538 21.4475 23.3835L21.4563 23.3802C23.2175 22.7074 24.9831 22.0331 26.7615 21.4336C27.7548 21.0997 28.7431 20.7504 29.7306 20.4015L29.7506 20.3945L29.7545 20.3932C31.5725 19.7506 33.3876 19.1091 35.2249 18.5656C35.8746 18.4199 36.5257 18.2786 37.1775 18.1372C38.5202 17.8458 39.8662 17.5536 41.2096 17.2209C41.5822 17.1244 41.9546 17.0247 42.327 16.923C43.0882 16.7149 43.8492 16.4979 44.6116 16.2805L44.6162 16.279L44.6331 16.2743C45.481 16.0323 46.3307 15.79 47.184 15.5589C51.0342 14.5707 54.8091 13.4241 58.5983 12.2497L63.0448 10.791C62.7937 11.8128 62.5985 12.8622 62.5159 13.8974C62.1306 17.9418 62.2935 22.0126 62.6537 26.0415C62.6872 26.3912 62.7195 26.7413 62.7513 27.0917L62.831 27.9826L62.8318 27.9903C62.9545 29.3678 63.0775 30.7487 63.2427 32.1263C63.4987 34.2647 63.8815 36.3617 64.3629 38.4721C65.3773 42.8473 67.6696 46.8587 69.9011 50.7633L69.921 50.7979L70.2592 51.3902C70.3944 51.6273 70.529 51.8639 70.6629 52.1002L70.8709 52.4691L71.1041 52.8814C71.2695 53.1735 71.4356 53.4656 71.602 53.7577L71.8577 54.2059L72.2521 54.8956C72.5222 55.3671 72.7931 55.8391 73.0647 56.3121L73.7487 57.5035L73.9093 57.7847C74.7943 59.3353 75.6961 60.9154 76.6929 62.4032C78.2686 64.7044 79.8731 66.9504 81.8604 68.9334C83.6323 70.6892 85.6753 72.1269 87.9114 73.2951C89.4627 74.0922 91.1223 74.6475 92.782 75.2028C95.604 76.1559 98.7053 76.6738 101.722 76.6465C103.451 76.6289 105.168 76.5701 106.825 76.1179C107.855 75.826 108.844 75.4099 109.778 74.8972C110.769 74.3431 111.522 73.6375 112.166 72.7391C112.759 71.9304 113.064 70.9242 113.356 69.9558C113.391 69.84 113.426 69.7248 113.461 69.6105C113.733 68.6507 113.983 67.698 114.184 66.7383C114.458 65.4245 114.628 64.0831 114.798 62.7488C114.882 62.0853 114.967 61.4235 115.063 60.7678C115.026 60.9404 115.01 61.1061 114.966 61.2579C115.153 60.1418 115.379 59.0296 115.604 57.9177C115.972 56.1068 116.339 54.2964 116.539 52.4705C116.763 50.3644 116.739 48.2523 116.716 46.1593L116.714 45.9976C117.102 46.466 117.49 46.9344 117.864 47.4305L117.87 47.437C120.418 50.5615 122.967 53.6877 125.735 56.6254C128.693 59.7793 131.715 62.8433 134.808 65.8382C137.686 68.6059 140.643 71.2562 143.599 73.9064C145.419 75.5489 147.206 77.2192 148.991 78.8886L148.996 78.8926L149.008 78.9041C151.4 81.1406 153.79 83.3756 156.257 85.5405C158.428 87.4404 160.635 89.3056 162.835 91.1501C163.399 91.6127 163.968 92.0703 164.537 92.5283C164.793 92.734 165.049 92.9397 165.304 93.1459C165.969 93.6829 166.632 94.2237 167.284 94.7769C166.249 95.4829 165.312 96.2716 164.325 97.1224C163.409 97.9171 162.513 98.7254 161.625 99.5395C161.303 99.8344 160.982 100.13 160.662 100.426L159.827 101.199C159.425 101.572 159.022 101.944 158.618 102.317C156.514 104.267 154.292 106.073 152.001 107.81C149.562 109.527 147.068 111.146 144.512 112.718C143.47 113.353 142.413 113.968 141.356 114.583L141.348 114.588C139.93 115.413 138.513 116.237 137.134 117.109C136.62 117.434 136.104 117.757 135.587 118.081C133.526 119.374 131.454 120.673 129.476 122.073C128.022 123.077 126.611 124.135 125.213 125.236C124.564 125.749 123.933 126.276 123.304 126.802L123.292 126.812L123.288 126.815C122.533 127.446 121.779 128.076 120.996 128.681C119.237 129.968 117.347 131.07 115.436 132.178C115.473 131.94 115.509 131.697 115.542 131.455C115.565 131.293 115.586 131.131 115.605 130.971L115.619 130.86L115.636 130.714C115.849 128.789 115.998 126.884 115.999 124.959C116 124.516 115.997 124.071 115.993 123.625C115.988 123.104 115.981 122.583 115.974 122.061L115.959 120.915L115.954 120.399C115.952 120.19 115.951 119.981 115.95 119.772L115.949 119.494L115.948 119.156C115.904 116.106 115.963 113.038 116.022 109.985L116.022 109.975L116.041 108.994C116.047 108.634 116.054 108.274 116.06 107.915C116.078 106.349 116.017 104.793 115.956 103.235C115.945 102.939 115.933 102.643 115.922 102.347C115.917 102.165 115.909 101.983 115.898 101.801C115.887 101.605 115.874 101.409 115.858 101.214C115.851 101.128 115.844 101.042 115.837 100.956L115.82 100.774L115.812 100.681C115.793 100.478 115.772 100.275 115.75 100.071C115.732 99.8918 115.712 99.7123 115.693 99.5328L115.693 99.5304L115.691 99.5163L115.69 99.5135C115.624 98.9004 115.558 98.2864 115.513 97.6693C115.727 96.8201 115.667 95.9232 115.255 95.0961C114.337 93.1915 112.165 92.5687 110.233 93.2493C110.325 93.2107 110.415 93.1684 110.505 93.1261C109.876 93.3552 109.255 93.6048 108.688 93.9511C108.573 94.0187 108.462 94.0923 108.355 94.1703C108.289 94.2187 108.224 94.2688 108.16 94.3204C108.012 94.4405 107.872 94.5679 107.737 94.6984C106.426 94.991 105.13 95.1869 103.807 95.3692C102.716 95.4751 101.632 95.5328 100.514 95.5558C98.8699 95.4765 97.2689 95.3144 95.6331 95.1178C91.1137 94.4237 86.7049 93.2809 82.2896 92.1173C82.4649 92.1514 82.6259 92.2131 82.7733 92.2336C78.5839 90.9729 74.4166 89.6364 70.2874 88.0583Z" fill="#6A74EF"/>
<path d="M80.8892 54.2481L81.0334 54.4998L81.0534 54.5344C81.0211 54.4696 80.9825 54.4018 80.9409 54.3324C80.9242 54.3046 80.9067 54.2763 80.8892 54.2481Z" fill="#6A74EF"/>
</svg>
